<?xml version="1.0" encoding="UTF-8"?><svg id="a" xmlns="http://www.w3.org/2000/svg" viewBox="0 0 224.73 296.11"><path d="M29.93,114.18l1.44.14c8.36,5.18,17.67,9.6,25.57,15.45.82.61,2.69,1.79,2.81,2.7l-.14,31.55c-.59,1.3-8.28,6-9.97,7.06-6.19,3.87-12.61,7.44-19.04,10.91-4.73-1.53-9.18-4.17-13.48-6.65-5.77-3.33-11.39-7.02-16.99-10.59L0,132.95c0-1.64,1.43-2.55,2.57-3.43,7.95-6.12,18.6-10.42,27.36-15.34Z"/><path d="M160.42,228.35c1.57-.3,7.4,2.85,9.1,3.75,7.38,3.95,14.27,8.8,21.43,13.11l.25.71v31.69c0,1.56-1.69,2.57-2.82,3.42-1.86,1.41-4.14,2.72-6.15,3.92-6.76,4.06-13.89,7.55-20.91,11.14-8.06-4.52-16.58-8.69-24.33-13.72-1.06-.69-5.13-3.23-5.43-4.16l.02-31.91c2.56-2.5,5.76-4.43,8.77-6.34,6.51-4.14,13.33-7.85,20.07-11.61Z"/><path d="M191.13,50.76c-9.93,5.84-19.39,13.19-30.32,17.06l-.74-.17c-9.58-5.76-19.81-10.72-28.49-17.81v-31.89c8.97-7.67,19.91-12.54,30.34-17.89.63-.13,4.32,2.02,5.2,2.5,5.57,2.99,11.56,6.34,16.85,9.78,2.48,1.61,5.05,3.23,7.09,5.38l.07,33.05Z"/><path d="M92.31,189.02v32.4c-.27.91-4.47,3.68-5.49,4.35-4.42,2.89-9.53,5.61-14.21,8.1-2.66,1.41-7.19,4.19-9.82,5.05-.32.1-.59.28-.95.14-6.1-3.37-12.23-6.74-18.15-10.41-3.75-2.32-7.59-4.63-10.88-7.59l-.05-31.84c8.61-7.08,18.79-12.02,28.33-17.73l1.05-.16c10.65,4.8,21.29,10,30.17,17.7Z"/><path d="M61.6,57.09c1.62-.31,7.59,3.05,9.34,3.99,7.26,3.94,14.11,8.63,21.19,12.87l.25.71-.14,32.27c-8.79,8-19.74,13.15-30.5,17.95-7.13-4.08-14.42-7.96-21.31-12.43-1.31-.85-7.34-4.71-7.69-5.75l.02-31.67c8.79-7.13,19.09-12.25,28.84-17.95Z"/><path d="M191.13,131.21v33.73c-8.09,4.63-15.75,10.12-24.01,14.47-1.11.59-4.92,2.71-5.92,2.49-7.35-4.06-14.93-7.8-22.04-12.27-2.66-1.67-5.41-3.33-7.57-5.62l-.08-31.73c9.19-7.6,19.89-13.24,30.74-18.1l28.89,17.03Z"/><path d="M165.08,222.04v-33.62c6.84-4.47,13.71-9.02,20.91-12.91,1.31-.71,8.2-4.42,9.1-4.23,7.47,4.19,15.22,7.98,22.46,12.57,2.46,1.56,5,3.09,7.04,5.2l.14,31.92c-9.12,7.64-20.19,13.03-30.92,18.04l-28.72-16.96Z"/><path d="M224.71,106.89c-8.02,6.12-16.85,11.57-26.01,15.85-.86.4-4.46,2.22-5.05,2.01l-28.58-16.89v-33.73c5.99-3.62,11.83-7.51,17.88-11.03,1.88-1.09,10.35-6.21,11.89-6,.64.09,4.44,2.3,5.37,2.79,5.82,3.09,12,6.52,17.57,10.02,1.29.81,6.34,3.83,6.79,4.96l.13,32.03Z"/><path d="M95.89,228.35l.87.22c9.44,5.43,19.39,10.15,28.09,16.77v33.82c-9.12,6.9-19.55,11.84-29.74,16.95l-28.79-17.19-.13-33c.1-.81,1.84-1.92,2.58-2.46,8.15-6.02,18.22-10.3,27.12-15.12Z"/><path d="M124.93,17.04l.05,33.6c-9.44,6.5-19.22,12.71-29.83,17.15l-28.82-17.22-.12-33.41c6.66-4.69,13.64-8.98,20.87-12.77,2.98-1.56,6.11-3.14,9.18-4.39l28.67,17.04Z"/><path d="M124.93,164.94c-9.65,5.89-18.9,12.76-29.45,16.99l-29.15-17.18-.07-33.53c9.31-6.49,19.24-12.03,29.45-16.98l.7.02,28.45,16.91.07,33.78Z"/></svg>